2.5Hzlow3min_grf.mot
version=1
nRows=27
nColumns 19
inDegrees=yes
endheader
time	1_ground_force_vx	1_ground_force_vy	1_ground_force_vz	1_ground_force_px	1_ground_force_py	1_ground_force_pz	1_ground_torque_x	1_ground_torque_y	1_ground_torque_z	2_ground_force_vx	2_ground_force_vy	2_ground_force_vz	2_ground_force_px	2_ground_force_py	2_ground_force_pz	2_ground_torque_x	2_ground_torque_y	2_ground_torque_z
            1.253500	           -3.118266	            0.181236	           -0.358338	           -0.233013	            0.005581	           -0.255695	            0.109225	            0.358665	           -0.037671	           -0.516822	            0.367607	           -0.326963	           -0.232311	            0.006130	           -0.833667	           -0.149932	           -0.104321	           -0.056858
            1.254000	           -2.888467	            0.720898	           -0.081452	           -0.233013	            0.005581	           -0.255695	            0.134660	            0.395839	           -0.046618	           -0.233503	           -0.185664	            0.187155	           -0.232311	            0.006130	           -0.833667	           -0.018519	           -0.093990	           -0.169981
            1.254500	           -2.430900	            1.082894	           -0.402035	           -0.233013	            0.005581	           -0.255695	            0.185706	            0.405292	           -0.027170	           -0.050817	            1.104553	            0.050890	           -0.232311	            0.006130	           -0.833667	           -0.075029	           -0.047064	           -0.132088
            1.255000	           -2.155840	           -0.178519	           -0.499841	           -0.233013	            0.005581	           -0.255695	            0.134098	            0.386998	           -0.034145	           -0.096338	            0.736088	            0.049596	           -0.232311	            0.006130	           -0.833667	           -0.093882	           -0.028227	           -0.132013
            1.255500	           -1.973055	            0.543365	           -0.680627	           -0.233013	            0.005581	           -0.255695	            0.160217	            0.294728	           -0.045610	           -0.371558	           -0.921425	           -0.190838	           -0.232311	            0.006130	           -0.833667	            0.000019	           -0.018502	           -0.113169
            1.256000	           -1.788838	            0.902359	           -0.312689	           -0.233013	            0.005581	           -0.255695	            0.125695	            0.229954	           -0.000400	           -0.425013	            0.919554	           -0.090392	           -0.232311	            0.006130	           -0.833667	           -0.093857	           -0.028428	           -0.075462
            1.256500	           -2.017256	            0.900939	            0.008871	           -0.233013	            0.005581	           -0.255695	            0.187131	            0.165087	            0.008194	           -0.516013	            0.182288	            0.000876	           -0.232311	            0.006130	           -0.833667	           -0.037288	           -0.085008	           -0.056838
            1.257000	           -1.879823	            0.180296	           -0.086274	           -0.233013	            0.005581	           -0.255695	            0.191393	            0.091442	           -0.042637	           -0.420340	           -0.369652	           -0.048063	           -0.232311	            0.006130	           -0.833667	           -0.112361	           -0.113369	           -0.132308
            1.257500	           -1.283525	            1.441288	            0.146937	           -0.233013	            0.005581	           -0.255695	            0.162048	            0.101043	           -0.035955	           -0.420279	           -0.370154	            0.092721	           -0.232311	            0.006130	           -0.833667	           -0.056048	           -0.094462	           -0.075714
            1.258000	           -0.641104	            0.539297	            0.324903	           -0.233013	            0.005581	           -0.255695	            0.229878	            0.055302	           -0.046517	           -0.279770	           -0.369312	           -0.001195	           -0.232311	            0.006130	           -0.833667	           -0.093678	           -0.084943	           -0.132215
            1.258500	            0.000519	            0.900149	            0.279000	           -0.233013	            0.005581	           -0.255695	            0.137776	           -0.018289	           -0.038049	           -0.186756	           -0.184658	           -0.047505	           -0.232311	            0.006130	           -0.833667	           -0.056329	           -0.018773	           -0.094295
            1.259000	            0.321225	            0.720338	            0.185719	           -0.233013	            0.005581	           -0.255695	            0.235670	           -0.128966	           -0.043875	           -0.046891	            0.000166	           -0.093836	           -0.232311	            0.006130	           -0.833667	           -0.150324	           -0.000206	           -0.094187
            1.259500	            0.138179	            0.179113	            0.275567	           -0.233013	            0.005581	           -0.255695	            0.156898	           -0.082684	           -0.088877	           -0.093720	           -0.000171	           -0.046888	           -0.232311	            0.006130	           -0.833667	           -0.225390	           -0.010267	            0.000062
            1.260000	           -0.366111	            0.899881	            0.325766	           -0.233013	            0.005581	           -0.255695	            0.229650	           -0.064655	           -0.054113	           -0.609151	           -0.001362	           -0.234381	           -0.232311	            0.006130	           -0.833667	           -0.075013	           -0.038015	           -0.018953
            1.260500	           -0.732709	            0.719348	            0.371760	           -0.233013	            0.005581	           -0.255695	            0.227802	            0.027531	           -0.050547	           -0.237573	            0.919896	            0.003385	           -0.232311	            0.006130	           -0.833667	           -0.112216	           -0.151247	           -0.113593
            1.261000	           -0.824296	            0.178533	            0.369668	           -0.233013	            0.005581	           -0.255695	            0.209224	            0.046214	           -0.110705	           -0.376149	            0.367111	           -0.045455	           -0.232311	            0.006130	           -0.833667	           -0.074747	           -0.122753	           -0.113508
            1.261500	           -0.594982	           -0.362219	            0.366780	           -0.233013	            0.005581	           -0.255695	            0.153432	           -0.018638	           -0.044658	           -0.186714	           -0.184992	            0.046351	           -0.232311	            0.006130	           -0.833667	           -0.168828	           -0.075963	           -0.075599
            1.262000	           -0.594919	            0.538716	            0.462357	           -0.233013	            0.005581	           -0.255695	            0.167589	           -0.101580	           -0.101475	           -0.281182	           -0.000345	           -0.187593	           -0.232311	            0.006130	           -0.833667	           -0.244243	           -0.000613	           -0.075297
            1.262500	            0.091941	            2.342292	            0.284956	           -0.233013	            0.005581	           -0.255695	            0.193102	           -0.128996	           -0.072399	           -0.331999	            1.104208	           -0.136702	           -0.232311	            0.006130	           -0.833667	           -0.075079	           -0.037477	           -0.169755
            1.263000	            0.367295	            0.719954	            0.277317	           -0.233013	            0.005581	           -0.255695	            0.119085	           -0.128884	           -0.060428	           -0.141235	            0.183808	           -0.046211	           -0.232311	            0.006130	           -0.833667	           -0.150425	            0.018968	           -0.169520
            1.263500	            0.321761	            0.899621	            0.415772	           -0.233013	            0.005581	           -0.255695	            0.169505	           -0.110565	           -0.024840	           -0.229638	           -1.289549	           -0.098356	           -0.232311	            0.006130	           -0.833667	            0.000215	           -0.075151	           -0.132221
            1.264000	           -0.457600	           -0.181730	            0.321356	           -0.233013	            0.005581	           -0.255695	            0.249374	            0.008770	            0.055070	           -0.329923	            0.551093	            0.049039	           -0.232311	            0.006130	           -0.833667	           -0.055988	           -0.113300	           -0.094632
            1.264500	           -0.640567	            0.718579	            0.554956	           -0.233013	            0.005581	           -0.255695	            0.107495	            0.045801	            0.010134	           -0.283717	            0.735244	            0.096604	           -0.232311	            0.006130	           -0.833667	           -0.074993	           -0.065701	           -0.207556
            1.265000	           -0.870369	            1.440384	            0.375193	           -0.233013	            0.005581	           -0.255695	            0.189920	            0.027218	            0.000050	           -0.372305	           -0.736608	           -0.377894	           -0.232311	            0.006130	           -0.833667	           -0.093789	           -0.047334	           -0.075530
            1.265500	           -0.732936	            0.719741	            0.280048	           -0.233013	            0.005581	           -0.255695	            0.138196	           -0.065488	            0.080863	           -0.190867	            0.921237	           -0.325132	           -0.232311	            0.006130	           -0.833667	           -0.168846	           -0.066645	           -0.037865
            1.266000	           -0.136588	            1.079601	            0.463538	           -0.233013	            0.005581	           -0.255695	            0.186166	           -0.156987	           -0.044634	           -0.237614	            0.920231	           -0.090471	           -0.232311	            0.006130	           -0.833667	           -0.150384	            0.018632	           -0.075269
            1.266500	           -0.091494	            1.441321	            0.189835	           -0.233013	            0.005581	           -0.255695	            0.253892	           -0.147558	           -0.080416	           -0.327970	           -0.001017	           -0.046789	           -0.232311	            0.006130	           -0.833667	           -0.131496	           -0.009659	           -0.075379
